<?xml version="1.0" encoding="UTF-8" standalone="no"?>
<!DOCTYPE svg PUBLIC "-//W3C//DTD SVG 1.0//EN" "http://www.w3.org/TR/2001/PR-SVG-20010719/DTD/svg10.dtd">
<svg width="18cm" height="16cm" viewBox="-405 -241 356 319" xmlns="http://www.w3.org/2000/svg" xmlns:xlink="http://www.w3.org/1999/xlink">
  <g>
    <rect style="fill: none; fill-opacity:0; stroke-width: 2; stroke: #000000" x="-398.304" y="10.0794" width="34.4876" height="38"/>
    <text font-size="12.8" style="fill: #000000;text-anchor:middle;font-family:sans-serif;font-style:normal;font-weight:normal" x="-381.06" y="32.9607">
      <tspan x="-381.06" y="32.9607"></tspan>
    </text>
  </g>
  <g>
    <polygon style="fill: #000000" points="-381.49,22.0836 -372.237,32.8701 -390.744,32.8701 "/>
    <polygon style="fill: none; fill-opacity:0; stroke-width: 2; stroke: #000000" points="-381.49,22.0836 -372.237,32.8701 -390.744,32.8701 "/>
  </g>
  <g>
    <polygon style="fill: #000000" points="-381.529,16.6196 -374.291,25.8091 -388.766,25.8091 "/>
    <polygon style="fill: none; fill-opacity:0; stroke-width: 2; stroke: #000000" points="-381.529,16.6196 -374.291,25.8091 -388.766,25.8091 "/>
  </g>
  <line style="fill: none; fill-opacity:0; stroke-width: 4; stroke: #000000" x1="-381.49" y1="32.8701" x2="-381.484" y2="40.3095"/>
  <text font-size="12.8" style="fill: #000000;text-anchor:start;font-family:sans-serif;font-style:normal;font-weight:normal" x="-384.906" y="3.3942">
    <tspan x="-384.906" y="3.3942">0</tspan>
  </text>
  <text font-size="14.1111" style="fill: #000000;text-anchor:start;font-family:sans-serif;font-style:normal;font-weight:normal" x="-216.494" y="74.466">
    <tspan x="-216.494" y="74.466">Online Tree Repository</tspan>
  </text>
  <g>
    <rect style="fill: none; fill-opacity:0; stroke-width: 2; stroke: #000000" x="-363.746" y="10.086" width="34.4876" height="38"/>
    <text font-size="12.8" style="fill: #000000;text-anchor:middle;font-family:sans-serif;font-style:normal;font-weight:normal" x="-346.502" y="32.9673">
      <tspan x="-346.502" y="32.9673"></tspan>
    </text>
  </g>
  <g>
    <polygon style="fill: #000000" points="-346.932,22.09 -337.679,32.8765 -356.186,32.8765 "/>
    <polygon style="fill: none; fill-opacity:0; stroke-width: 2; stroke: #000000" points="-346.932,22.09 -337.679,32.8765 -356.186,32.8765 "/>
  </g>
  <g>
    <polygon style="fill: #000000" points="-346.971,16.626 -339.733,25.8155 -354.208,25.8155 "/>
    <polygon style="fill: none; fill-opacity:0; stroke-width: 2; stroke: #000000" points="-346.971,16.626 -339.733,25.8155 -354.208,25.8155 "/>
  </g>
  <line style="fill: none; fill-opacity:0; stroke-width: 4; stroke: #000000" x1="-346.932" y1="32.8765" x2="-346.926" y2="40.3159"/>
  <text font-size="12.8" style="fill: #000000;text-anchor:start;font-family:sans-serif;font-style:normal;font-weight:normal" x="-350.348" y="3.4006">
    <tspan x="-350.348" y="3.4006">1</tspan>
  </text>
  <g>
    <rect style="fill: none; fill-opacity:0; stroke-width: 2; stroke: #000000" x="-329.166" y="10.0564" width="34.4876" height="38"/>
    <text font-size="12.8" style="fill: #000000;text-anchor:middle;font-family:sans-serif;font-style:normal;font-weight:normal" x="-311.922" y="32.9377">
      <tspan x="-311.922" y="32.9377"></tspan>
    </text>
  </g>
  <g>
    <polygon style="fill: #000000" points="-312.352,22.0606 -303.099,32.8471 -321.606,32.8471 "/>
    <polygon style="fill: none; fill-opacity:0; stroke-width: 2; stroke: #000000" points="-312.352,22.0606 -303.099,32.8471 -321.606,32.8471 "/>
  </g>
  <g>
    <polygon style="fill: #000000" points="-312.393,16.5966 -305.155,25.7861 -319.63,25.7861 "/>
    <polygon style="fill: none; fill-opacity:0; stroke-width: 2; stroke: #000000" points="-312.393,16.5966 -305.155,25.7861 -319.63,25.7861 "/>
  </g>
  <line style="fill: none; fill-opacity:0; stroke-width: 4; stroke: #000000" x1="-312.352" y1="32.8471" x2="-312.348" y2="40.2862"/>
  <text font-size="12.8" style="fill: #000000;text-anchor:start;font-family:sans-serif;font-style:normal;font-weight:normal" x="-315.77" y="3.371">
    <tspan x="-315.77" y="3.371">2</tspan>
  </text>
  <g>
    <rect style="fill: none; fill-opacity:0; stroke-width: 2; stroke: #000000" x="-294.608" y="10.0628" width="34.4876" height="38"/>
    <text font-size="12.8" style="fill: #000000;text-anchor:middle;font-family:sans-serif;font-style:normal;font-weight:normal" x="-277.364" y="32.9441">
      <tspan x="-277.364" y="32.9441"></tspan>
    </text>
  </g>
  <text font-size="12.8" style="fill: #000000;text-anchor:start;font-family:sans-serif;font-style:normal;font-weight:normal" x="-281.212" y="3.3774">
    <tspan x="-281.212" y="3.3774">3</tspan>
  </text>
  <g>
    <rect style="fill: none; fill-opacity:0; stroke-width: 2; stroke: #000000" x="-260.226" y="10.1014" width="34.4876" height="38"/>
    <text font-size="12.8" style="fill: #000000;text-anchor:middle;font-family:sans-serif;font-style:normal;font-weight:normal" x="-242.982" y="32.9827">
      <tspan x="-242.982" y="32.9827"></tspan>
    </text>
  </g>
  <text font-size="12.8" style="fill: #000000;text-anchor:start;font-family:sans-serif;font-style:normal;font-weight:normal" x="-246.83" y="3.416">
    <tspan x="-246.83" y="3.416">4</tspan>
  </text>
  <g>
    <rect style="fill: none; fill-opacity:0; stroke-width: 2; stroke: #000000" x="-225.668" y="10.1078" width="34.4876" height="38"/>
    <text font-size="12.8" style="fill: #000000;text-anchor:middle;font-family:sans-serif;font-style:normal;font-weight:normal" x="-208.424" y="32.9891">
      <tspan x="-208.424" y="32.9891"></tspan>
    </text>
  </g>
  <text font-size="12.8" style="fill: #000000;text-anchor:start;font-family:sans-serif;font-style:normal;font-weight:normal" x="-212.27" y="3.4224">
    <tspan x="-212.27" y="3.4224">5</tspan>
  </text>
  <g>
    <rect style="fill: none; fill-opacity:0; stroke-width: 2; stroke: #000000" x="-191.156" y="10.1202" width="34.4876" height="38"/>
    <text font-size="12.8" style="fill: #000000;text-anchor:middle;font-family:sans-serif;font-style:normal;font-weight:normal" x="-173.913" y="33.0015">
      <tspan x="-173.913" y="33.0015"></tspan>
    </text>
  </g>
  <text font-size="12.8" style="fill: #000000;text-anchor:start;font-family:sans-serif;font-style:normal;font-weight:normal" x="-177.76" y="3.3538">
    <tspan x="-177.76" y="3.3538">6</tspan>
  </text>
  <g>
    <rect style="fill: none; fill-opacity:0; stroke-width: 2; stroke: #000000" x="-156.598" y="10.1266" width="34.4876" height="38"/>
    <text font-size="12.8" style="fill: #000000;text-anchor:middle;font-family:sans-serif;font-style:normal;font-weight:normal" x="-139.354" y="33.0079">
      <tspan x="-139.354" y="33.0079"></tspan>
    </text>
  </g>
  <g>
    <polygon style="fill: #000000" points="-139.784,22.1308 -130.53,32.9173 -149.038,32.9173 "/>
    <polygon style="fill: none; fill-opacity:0; stroke-width: 2; stroke: #000000" points="-139.784,22.1308 -130.53,32.9173 -149.038,32.9173 "/>
  </g>
  <g>
    <polygon style="fill: #000000" points="-139.823,16.6668 -132.586,25.8563 -147.061,25.8563 "/>
    <polygon style="fill: none; fill-opacity:0; stroke-width: 2; stroke: #000000" points="-139.823,16.6668 -132.586,25.8563 -147.061,25.8563 "/>
  </g>
  <line style="fill: none; fill-opacity:0; stroke-width: 4; stroke: #000000" x1="-139.784" y1="32.9173" x2="-139.78" y2="40.3564"/>
  <text font-size="12.8" style="fill: #000000;text-anchor:start;font-family:sans-serif;font-style:normal;font-weight:normal" x="-143.201" y="3.3602">
    <tspan x="-143.201" y="3.3602">7</tspan>
  </text>
  <g>
    <rect style="fill: none; fill-opacity:0; stroke-width: 2; stroke: #000000" x="-122.019" y="10.097" width="34.4876" height="38"/>
    <text font-size="12.8" style="fill: #000000;text-anchor:middle;font-family:sans-serif;font-style:normal;font-weight:normal" x="-104.776" y="32.9783">
      <tspan x="-104.776" y="32.9783"></tspan>
    </text>
  </g>
  <g>
    <polygon style="fill: #000000" points="-105.206,22.1012 -95.952,32.8877 -114.459,32.8877 "/>
    <polygon style="fill: none; fill-opacity:0; stroke-width: 2; stroke: #000000" points="-105.206,22.1012 -95.952,32.8877 -114.459,32.8877 "/>
  </g>
  <g>
    <polygon style="fill: #000000" points="-105.245,16.6372 -98.0076,25.8267 -112.482,25.8267 "/>
    <polygon style="fill: none; fill-opacity:0; stroke-width: 2; stroke: #000000" points="-105.245,16.6372 -98.0076,25.8267 -112.482,25.8267 "/>
  </g>
  <line style="fill: none; fill-opacity:0; stroke-width: 4; stroke: #000000" x1="-105.206" y1="32.8877" x2="-105.202" y2="40.3271"/>
  <text font-size="12.8" style="fill: #000000;text-anchor:start;font-family:sans-serif;font-style:normal;font-weight:normal" x="-108.623" y="3.3306">
    <tspan x="-108.623" y="3.3306">8</tspan>
  </text>
  <g>
    <rect style="fill: none; fill-opacity:0; stroke-width: 2; stroke: #000000" x="-87.4608" y="10.1036" width="34.4876" height="38"/>
    <text font-size="12.8" style="fill: #000000;text-anchor:middle;font-family:sans-serif;font-style:normal;font-weight:normal" x="-70.217" y="32.9849">
      <tspan x="-70.217" y="32.9849"></tspan>
    </text>
  </g>
  <g>
    <polygon style="fill: #000000" points="-70.6471,22.1076 -61.3934,32.8941 -79.9008,32.8941 "/>
    <polygon style="fill: none; fill-opacity:0; stroke-width: 2; stroke: #000000" points="-70.6471,22.1076 -61.3934,32.8941 -79.9008,32.8941 "/>
  </g>
  <g>
    <polygon style="fill: #000000" points="-70.6864,16.6436 -63.449,25.8331 -77.9238,25.8331 "/>
    <polygon style="fill: none; fill-opacity:0; stroke-width: 2; stroke: #000000" points="-70.6864,16.6436 -63.449,25.8331 -77.9238,25.8331 "/>
  </g>
  <line style="fill: none; fill-opacity:0; stroke-width: 4; stroke: #000000" x1="-70.6471" y1="32.8941" x2="-70.6432" y2="40.3335"/>
  <text font-size="12.8" style="fill: #000000;text-anchor:start;font-family:sans-serif;font-style:normal;font-weight:normal" x="-74.064" y="3.3372">
    <tspan x="-74.064" y="3.3372">9</tspan>
  </text>
  <g>
    <rect style="fill: none; fill-opacity:0; stroke-width: 2; stroke: #000000" x="-398.009" y="-159.727" width="34.4876" height="38"/>
    <text font-size="12.8" style="fill: #000000;text-anchor:middle;font-family:sans-serif;font-style:normal;font-weight:normal" x="-380.765" y="-136.846">
      <tspan x="-380.765" y="-136.846"></tspan>
    </text>
  </g>
  <g>
    <polygon style="fill: #000000" points="-381.195,-147.723 -371.942,-136.937 -390.449,-136.937 "/>
    <polygon style="fill: none; fill-opacity:0; stroke-width: 2; stroke: #000000" points="-381.195,-147.723 -371.942,-136.937 -390.449,-136.937 "/>
  </g>
  <g>
    <polygon style="fill: #000000" points="-381.234,-153.187 -373.996,-143.998 -388.471,-143.998 "/>
    <polygon style="fill: none; fill-opacity:0; stroke-width: 2; stroke: #000000" points="-381.234,-153.187 -373.996,-143.998 -388.471,-143.998 "/>
  </g>
  <line style="fill: none; fill-opacity:0; stroke-width: 4; stroke: #000000" x1="-381.195" y1="-136.937" x2="-381.189" y2="-129.497"/>
  <text font-size="12.8" style="fill: #000000;text-anchor:start;font-family:sans-serif;font-style:normal;font-weight:normal" x="-384.611" y="-166.413">
    <tspan x="-384.611" y="-166.413">0</tspan>
  </text>
  <g>
    <rect style="fill: none; fill-opacity:0; stroke-width: 2; stroke: #000000" x="-363.451" y="-159.721" width="34.4876" height="38"/>
    <text font-size="12.8" style="fill: #000000;text-anchor:middle;font-family:sans-serif;font-style:normal;font-weight:normal" x="-346.207" y="-136.84">
      <tspan x="-346.207" y="-136.84"></tspan>
    </text>
  </g>
  <text font-size="12.8" style="fill: #000000;text-anchor:start;font-family:sans-serif;font-style:normal;font-weight:normal" x="-350.053" y="-166.406">
    <tspan x="-350.053" y="-166.406">1</tspan>
  </text>
  <g>
    <rect style="fill: none; fill-opacity:0; stroke-width: 2; stroke: #000000" x="-328.871" y="-159.75" width="34.4876" height="38"/>
    <text font-size="12.8" style="fill: #000000;text-anchor:middle;font-family:sans-serif;font-style:normal;font-weight:normal" x="-311.627" y="-136.869">
      <tspan x="-311.627" y="-136.869"></tspan>
    </text>
  </g>
  <text font-size="12.8" style="fill: #000000;text-anchor:start;font-family:sans-serif;font-style:normal;font-weight:normal" x="-315.475" y="-166.436">
    <tspan x="-315.475" y="-166.436">2</tspan>
  </text>
  <g>
    <rect style="fill: none; fill-opacity:0; stroke-width: 2; stroke: #000000" x="-294.313" y="-159.744" width="34.4876" height="38"/>
    <text font-size="12.8" style="fill: #000000;text-anchor:middle;font-family:sans-serif;font-style:normal;font-weight:normal" x="-277.069" y="-136.863">
      <tspan x="-277.069" y="-136.863"></tspan>
    </text>
  </g>
  <text font-size="12.8" style="fill: #000000;text-anchor:start;font-family:sans-serif;font-style:normal;font-weight:normal" x="-280.917" y="-166.429">
    <tspan x="-280.917" y="-166.429">3</tspan>
  </text>
  <g>
    <rect style="fill: none; fill-opacity:0; stroke-width: 2; stroke: #000000" x="-259.931" y="-159.705" width="34.4876" height="38"/>
    <text font-size="12.8" style="fill: #000000;text-anchor:middle;font-family:sans-serif;font-style:normal;font-weight:normal" x="-242.687" y="-136.824">
      <tspan x="-242.687" y="-136.824"></tspan>
    </text>
  </g>
  <g>
    <polygon style="fill: #000000" points="-243.117,-147.701 -233.864,-136.915 -252.371,-136.915 "/>
    <polygon style="fill: none; fill-opacity:0; stroke-width: 2; stroke: #000000" points="-243.117,-147.701 -233.864,-136.915 -252.371,-136.915 "/>
  </g>
  <g>
    <polygon style="fill: #000000" points="-243.156,-153.165 -235.918,-143.976 -250.393,-143.976 "/>
    <polygon style="fill: none; fill-opacity:0; stroke-width: 2; stroke: #000000" points="-243.156,-153.165 -235.918,-143.976 -250.393,-143.976 "/>
  </g>
  <line style="fill: none; fill-opacity:0; stroke-width: 4; stroke: #000000" x1="-243.117" y1="-136.915" x2="-243.111" y2="-129.475"/>
  <text font-size="12.8" style="fill: #000000;text-anchor:start;font-family:sans-serif;font-style:normal;font-weight:normal" x="-246.535" y="-166.391">
    <tspan x="-246.535" y="-166.391">4</tspan>
  </text>
  <g>
    <rect style="fill: none; fill-opacity:0; stroke-width: 2; stroke: #000000" x="-225.373" y="-159.699" width="34.4876" height="38"/>
    <text font-size="12.8" style="fill: #000000;text-anchor:middle;font-family:sans-serif;font-style:normal;font-weight:normal" x="-208.129" y="-136.818">
      <tspan x="-208.129" y="-136.818"></tspan>
    </text>
  </g>
  <g>
    <polygon style="fill: #000000" points="-208.559,-147.695 -199.306,-136.908 -217.813,-136.908 "/>
    <polygon style="fill: none; fill-opacity:0; stroke-width: 2; stroke: #000000" points="-208.559,-147.695 -199.306,-136.908 -217.813,-136.908 "/>
  </g>
  <g>
    <polygon style="fill: #000000" points="-208.598,-153.159 -201.36,-143.969 -215.835,-143.969 "/>
    <polygon style="fill: none; fill-opacity:0; stroke-width: 2; stroke: #000000" points="-208.598,-153.159 -201.36,-143.969 -215.835,-143.969 "/>
  </g>
  <line style="fill: none; fill-opacity:0; stroke-width: 4; stroke: #000000" x1="-208.559" y1="-136.908" x2="-208.553" y2="-129.469"/>
  <text font-size="12.8" style="fill: #000000;text-anchor:start;font-family:sans-serif;font-style:normal;font-weight:normal" x="-211.975" y="-166.384">
    <tspan x="-211.975" y="-166.384">5</tspan>
  </text>
  <g>
    <rect style="fill: none; fill-opacity:0; stroke-width: 2; stroke: #000000" x="-190.861" y="-159.687" width="34.4876" height="38"/>
    <text font-size="12.8" style="fill: #000000;text-anchor:middle;font-family:sans-serif;font-style:normal;font-weight:normal" x="-173.618" y="-136.805">
      <tspan x="-173.618" y="-136.805"></tspan>
    </text>
  </g>
  <g>
    <polygon style="fill: #000000" points="-174.048,-147.683 -164.794,-136.896 -183.301,-136.896 "/>
    <polygon style="fill: none; fill-opacity:0; stroke-width: 2; stroke: #000000" points="-174.048,-147.683 -164.794,-136.896 -183.301,-136.896 "/>
  </g>
  <g>
    <polygon style="fill: #000000" points="-174.087,-153.147 -166.85,-143.957 -181.324,-143.957 "/>
    <polygon style="fill: none; fill-opacity:0; stroke-width: 2; stroke: #000000" points="-174.087,-153.147 -166.85,-143.957 -181.324,-143.957 "/>
  </g>
  <line style="fill: none; fill-opacity:0; stroke-width: 4; stroke: #000000" x1="-174.048" y1="-136.896" x2="-174.044" y2="-129.457"/>
  <text font-size="12.8" style="fill: #000000;text-anchor:start;font-family:sans-serif;font-style:normal;font-weight:normal" x="-177.465" y="-166.453">
    <tspan x="-177.465" y="-166.453">6</tspan>
  </text>
  <g>
    <rect style="fill: none; fill-opacity:0; stroke-width: 2; stroke: #000000" x="-156.303" y="-159.68" width="34.4876" height="38"/>
    <text font-size="12.8" style="fill: #000000;text-anchor:middle;font-family:sans-serif;font-style:normal;font-weight:normal" x="-139.059" y="-136.799">
      <tspan x="-139.059" y="-136.799"></tspan>
    </text>
  </g>
  <g>
    <polygon style="fill: #000000" points="-139.489,-147.676 -130.235,-136.889 -148.743,-136.889 "/>
    <polygon style="fill: none; fill-opacity:0; stroke-width: 2; stroke: #000000" points="-139.489,-147.676 -130.235,-136.889 -148.743,-136.889 "/>
  </g>
  <g>
    <polygon style="fill: #000000" points="-139.528,-153.14 -132.291,-143.95 -146.766,-143.95 "/>
    <polygon style="fill: none; fill-opacity:0; stroke-width: 2; stroke: #000000" points="-139.528,-153.14 -132.291,-143.95 -146.766,-143.95 "/>
  </g>
  <line style="fill: none; fill-opacity:0; stroke-width: 4; stroke: #000000" x1="-139.489" y1="-136.889" x2="-139.485" y2="-129.45"/>
  <text font-size="12.8" style="fill: #000000;text-anchor:start;font-family:sans-serif;font-style:normal;font-weight:normal" x="-142.906" y="-166.447">
    <tspan x="-142.906" y="-166.447">7</tspan>
  </text>
  <g>
    <rect style="fill: none; fill-opacity:0; stroke-width: 2; stroke: #000000" x="-121.724" y="-159.71" width="34.4876" height="38"/>
    <text font-size="12.8" style="fill: #000000;text-anchor:middle;font-family:sans-serif;font-style:normal;font-weight:normal" x="-104.481" y="-136.829">
      <tspan x="-104.481" y="-136.829"></tspan>
    </text>
  </g>
  <text font-size="12.8" style="fill: #000000;text-anchor:start;font-family:sans-serif;font-style:normal;font-weight:normal" x="-108.328" y="-166.476">
    <tspan x="-108.328" y="-166.476">8</tspan>
  </text>
  <g>
    <rect style="fill: none; fill-opacity:0; stroke-width: 2; stroke: #000000" x="-87.1658" y="-159.703" width="34.4876" height="38"/>
    <text font-size="12.8" style="fill: #000000;text-anchor:middle;font-family:sans-serif;font-style:normal;font-weight:normal" x="-69.922" y="-136.822">
      <tspan x="-69.922" y="-136.822"></tspan>
    </text>
  </g>
  <g>
    <polygon style="fill: #000000" points="-70.3521,-147.699 -61.0984,-136.913 -79.6058,-136.913 "/>
    <polygon style="fill: none; fill-opacity:0; stroke-width: 2; stroke: #000000" points="-70.3521,-147.699 -61.0984,-136.913 -79.6058,-136.913 "/>
  </g>
  <g>
    <polygon style="fill: #000000" points="-70.3914,-153.163 -63.154,-143.974 -77.6288,-143.974 "/>
    <polygon style="fill: none; fill-opacity:0; stroke-width: 2; stroke: #000000" points="-70.3914,-153.163 -63.154,-143.974 -77.6288,-143.974 "/>
  </g>
  <line style="fill: none; fill-opacity:0; stroke-width: 4; stroke: #000000" x1="-70.3521" y1="-136.913" x2="-70.3482" y2="-129.473"/>
  <text font-size="12.8" style="fill: #000000;text-anchor:start;font-family:sans-serif;font-style:normal;font-weight:normal" x="-73.769" y="-166.47">
    <tspan x="-73.769" y="-166.47">9</tspan>
  </text>
  <text font-size="50.8" style="fill: #000000;text-anchor:start;font-family:sans-serif;font-style:normal;font-weight:700" x="-404.309" y="-193.178">
    <tspan x="-404.309" y="-193.178">1000111101</tspan>
  </text>
  <text font-size="50.8" style="fill: #000000;text-anchor:start;font-family:sans-serif;font-style:normal;font-weight:700" x="-404.009" y="-27.3248">
    <tspan x="-404.009" y="-27.3248">1110000111</tspan>
  </text>
</svg>
